<?xml version="1.0" encoding="UTF-8" standalone="no"?>
<svg
   xmlns:dc="http://purl.org/dc/elements/1.1/"
   xmlns:cc="http://creativecommons.org/ns#"
   xmlns:rdf="http://www.w3.org/1999/02/22-rdf-syntax-ns#"
   xmlns:svg="http://www.w3.org/2000/svg"
   xmlns="http://www.w3.org/2000/svg"
   xmlns:sodipodi="http://sodipodi.sourceforge.net/DTD/sodipodi-0.dtd"
   xmlns:inkscape="http://www.inkscape.org/namespaces/inkscape"
   viewBox="0 0 200 200"
   id="svg2"
   version="1.1"
   inkscape:version="0.91 r13725"
   sodipodi:docname="interviewed.svg">
  <metadata
     id="metadata74">
    <rdf:RDF>
      <cc:Work
         rdf:about="">
        <dc:format>image/svg+xml</dc:format>
        <dc:type
           rdf:resource="http://purl.org/dc/dcmitype/StillImage" />
      </cc:Work>
    </rdf:RDF>
  </metadata>
  <defs
     id="defs72" />
  <sodipodi:namedview
     pagecolor="#ffffff"
     bordercolor="#666666"
     borderopacity="1"
     objecttolerance="10"
     gridtolerance="10"
     guidetolerance="10"
     inkscape:pageopacity="0"
     inkscape:pageshadow="2"
     inkscape:window-width="1364"
     inkscape:window-height="688"
     id="namedview70"
     showgrid="false"
     inkscape:zoom="1.18"
     inkscape:cx="100"
     inkscape:cy="33.804203"
     inkscape:window-x="0"
     inkscape:window-y="25"
     inkscape:window-maximized="1"
     inkscape:current-layer="svg2" />
  <circle
     style="fill:#ffffff;fill-opacity:1;fill-rule:evenodd;stroke:#ffffff;stroke-width:1.03499997;stroke-linecap:butt;stroke-linejoin:miter;stroke-miterlimit:4;stroke-dasharray:none;stroke-opacity:1"
     id="path3335"
     cx="100.84746"
     cy="100"
     r="98.711128" />
  <path
     inkscape:connector-curvature="0"
     style="color:#000000;font-style:normal;font-variant:normal;font-weight:normal;font-stretch:normal;font-size:medium;line-height:normal;font-family:'Bitstream Vera Sans';-inkscape-font-specification:'Bitstream Vera Sans';text-indent:0;text-align:start;text-decoration:none;text-decoration-line:none;letter-spacing:normal;word-spacing:normal;text-transform:none;direction:ltr;block-progression:tb;writing-mode:lr-tb;baseline-shift:baseline;text-anchor:start;display:inline;overflow:visible;visibility:visible;fill:#000000;fill-opacity:1;stroke:none;stroke-width:309;marker:none;enable-background:accumulate"
     d="m 104.58635,14.296287 c -1.12241,-0.0022 -2.29315,0.04503 -3.51402,0.142387 -30.856143,2.485035 -22.672882,35.082957 -23.130844,45.998957 -0.563492,7.98279 -2.182033,14.273764 -7.67228,22.077912 -6.45022,7.670461 -15.531395,20.085187 -19.833388,33.008497 -2.030345,6.09924 -2.99651,12.31601 -2.104231,18.19977 -0.27951,0.2503 -0.545602,0.51254 -0.798621,0.78266 -1.893784,2.02178 -3.293071,4.47146 -4.852241,6.12079 -1.456675,1.45307 -3.532062,2.00577 -5.812745,2.82401 -2.281561,0.81862 -4.786535,2.0255 -6.307067,4.94329 0,0 0,6.4e-4 -0.0013,10e-4 -0.0025,0.005 -0.0051,0.01 -0.0078,0.0144 l 0,0 c -1.376462,2.57093 -0.967263,5.53156 -0.546879,8.27452 0.420392,2.74294 0.84598,5.33491 0.281069,7.09346 -1.805695,4.93544 -2.036229,8.34938 -0.765078,10.82573 1.273859,2.4815 3.893024,3.57681 6.853253,4.19508 5.920462,1.23655 13.938329,0.92926 20.257338,4.27839 l 0.543125,-1.0248 -0.537504,1.02786 c 6.764801,3.53682 13.622982,4.79307 19.0946,3.5433 3.967014,-0.90607 7.187289,-3.2682 8.841111,-6.90297 4.279683,-0.021 8.97587,-1.8336 16.498612,-2.2478 5.10342,-0.41109 11.47849,1.81228 18.81142,1.4051 0.19166,0.79557 0.46909,1.56079 0.84882,2.28793 0.004,0.008 0.008,0.0149 0.0115,0.0222 2.84263,5.68428 8.12442,8.28428 13.75319,7.84006 5.6362,-0.44481 11.62862,-3.76817 16.47257,-9.53278 l -0.88801,-0.74627 0.89479,0.73806 c 4.61701,-5.59826 12.28049,-7.91966 17.362,-10.9845 2.54075,-1.53245 4.60239,-3.45133 4.76168,-6.23835 0.1592,-2.78562 -1.4762,-5.90736 -5.23679,-10.08174 0,0 -6.4e-4,-0.001 -6.4e-4,-0.001 -0.001,-0.002 -0.003,-0.003 -0.004,-0.005 -1.2356,-1.39632 -1.82505,-3.98424 -2.45851,-6.74015 -0.63302,-2.75424 -1.33962,-5.72528 -3.6008,-7.65068 l 0,0 c -0.004,-0.004 -0.009,-0.008 -0.0136,-0.0115 0,0 0,0 0,0 -0.89992,-0.78419 -1.8351,-1.31641 -2.77686,-1.67397 3.14376,-9.32363 1.91029,-18.6077 -1.26315,-26.99726 -3.89455,-10.295976 -10.69411,-19.267652 -15.88705,-25.405064 -5.81266,-7.33176 -11.49794,-14.292685 -11.38595,-24.573728 0.17313,-15.691127 1.72597,-44.789851 -25.88568,-44.827529 z m 3.73808,24.173717 c 1.5668,0 2.90496,0.459241 4.27954,1.456947 1.39641,1.013516 2.40242,2.282279 3.21325,4.054087 0.79581,1.726744 1.17868,3.41593 1.21623,5.420469 0,0.05259 0,0.09762 0.015,0.150144 0.015,2.057074 -0.33785,3.806344 -1.11864,5.59315 -0.44552,1.019564 -0.95715,1.8753 -1.56955,2.61616 -0.20789,-0.09981 -0.42382,-0.195788 -0.64776,-0.287875 l 0,0 c -1.55227,-0.664834 -2.74304,-1.087931 -3.73549,-1.432307 0.35976,-0.432431 0.65931,-0.945302 0.92273,-1.586439 0.3979,-0.968475 0.5931,-1.914446 0.63063,-3.04057 0,-0.04503 0.015,-0.08261 0.015,-0.135156 0.0226,-1.081061 -0.12012,-2.004506 -0.43544,-2.950477 -0.33033,-0.99099 -0.75076,-1.704196 -1.35887,-2.2973 -0.60812,-0.593126 -1.21622,-0.863372 -1.94447,-0.88592 -0.0342,-0.0022 -0.0682,-0.0022 -0.10178,-0.0022 -0.68501,0.0022 -1.27981,0.236961 -1.8952,0.752166 -0.64565,0.540569 -1.12613,1.231238 -1.52404,2.192219 -0.3979,0.960959 -0.5931,1.914413 -0.63063,3.048064 -0.008,0.04503 -0.008,0.08261 -0.008,0.12764 -0.0129,0.623146 0.0266,1.193987 0.1227,1.748317 -1.40163,-0.698415 -2.72249,-1.174561 -3.962116,-1.469601 -0.0707,-0.536055 -0.11155,-1.089224 -0.1246,-1.667614 l 0,-0.157671 c -0.0226,-2.04958 0.31532,-3.806333 1.103616,-5.593128 0.78831,-1.786817 1.76429,-3.070623 3.13817,-4.11417 1.37389,-1.043548 2.72524,-1.524022 4.32437,-1.539043 0.025,0 0.05,0 0.0748,0 z m -21.444942,1.697874 c 1.039395,0.0022 1.969447,0.349712 2.931469,1.11794 1.043558,0.833319 1.831858,1.899393 2.492518,3.400921 0.660671,1.501517 1.013527,3.003023 1.111125,4.774819 l 0,0.0149 c 0.04733,0.744136 0.04152,1.4446 -0.01709,2.122987 -0.205571,0.0584 -0.407012,0.121636 -0.604356,0.189587 -1.120723,0.385768 -2.108404,0.911502 -2.969245,1.479933 0.08414,-0.594605 0.09674,-1.197909 0.0321,-1.870588 -0.0077,-0.03758 -0.0077,-0.0676 -0.0077,-0.10507 -0.09006,-0.893414 -0.277773,-1.644168 -0.593093,-2.402437 -0.337835,-0.788267 -0.713228,-1.343846 -1.208723,-1.771785 -0.449051,-0.387806 -0.87332,-0.565878 -1.34011,-0.562361 -0.04832,0 -0.09718,0.0022 -0.146386,0.0066 -0.525539,0.04503 -0.960978,0.300266 -1.373899,0.803299 -0.412915,0.502989 -0.683184,1.126135 -0.87838,1.951939 -0.195201,0.825847 -0.247751,1.636673 -0.165176,2.56759 0,0.03758 0.0076,0.0676 0.0076,0.10507 0.09008,0.900919 0.270262,1.651661 0.593094,2.409952 0.330332,0.780784 0.713221,1.336341 1.208724,1.764258 0.08298,0.07165 0.165081,0.136044 0.246802,0.193564 -0.515396,0.396659 -0.761504,0.57954 -1.183846,0.889875 -0.270878,0.198768 -0.593498,0.435422 -0.968468,0.711815 -0.817745,-0.766048 -1.455682,-1.728804 -2.01345,-2.996461 -0.660666,-1.501495 -1.013523,-3.003023 -1.118636,-4.77483 l 0,-0.0149 c -0.09759,-1.771774 0.07508,-3.295828 0.563076,-4.872417 0.487989,-1.5766 1.141159,-2.717734 2.087105,-3.656211 0.945951,-0.938433 1.899423,-1.411403 3.048082,-1.471443 0.08973,-0.0055 0.178685,-0.0077 0.266751,-0.0066 z m 9.753056,12.292014 c 2.41579,-0.0088 5.322866,0.78268 8.842276,3.045512 2.16178,1.405803 3.84392,1.523298 7.71733,3.182267 l 0.004,0.0022 0.004,0.0022 c 1.86365,0.764657 2.95753,1.761333 3.49196,2.810862 0.53443,1.049562 0.5475,2.187694 0.10014,3.38499 -0.8946,2.394625 -3.75022,4.91472 -7.75744,6.166073 l -0.004,0.0022 -0.004,0.0022 c -1.95391,0.634814 -3.65769,2.036717 -5.66635,3.185313 -2.00859,1.148551 -4.281476,2.074933 -7.371966,1.896138 0,-2.2e-5 0,0 0,0 -2.631008,-0.153343 -4.203708,-1.046527 -5.62577,-2.189403 -1.422085,-1.142888 -2.66131,-2.578689 -4.475926,-3.644226 l -0.0045,-0.0033 -0.0045,-0.0033 c -2.922919,-1.652089 -4.518692,-3.562897 -5.019515,-5.219401 -0.500842,-1.656526 -0.0308,-3.070514 1.419399,-4.157338 1.630457,-1.221914 2.763063,-2.053086 3.517521,-2.606759 0.749503,-0.54998 1.061328,-0.756198 1.299998,-0.98538 0.0011,-0.0022 0.0022,-0.0022 0.0044,-0.0044 0,0 6.46e-4,-0.0022 6.46e-4,-0.0022 1.225092,-1.159617 3.177962,-3.272327 6.121712,-4.285646 1.013187,-0.348769 2.143746,-0.573788 3.409146,-0.578795 z m 16.892976,9.990955 c -1.04249,0.06223 -2.13432,0.5989 -3.40561,1.308666 -1.27131,0.709755 -2.70093,1.617664 -4.25024,2.511757 -3.0986,1.788165 -6.665496,3.4983 -10.210296,3.4983 -3.550306,0 -6.386795,-1.639686 -8.514307,-3.325619 -1.063751,-0.842982 -1.941707,-1.692078 -2.643129,-2.348936 -0.350713,-0.328446 -0.654871,-0.608377 -0.938686,-0.82702 -0.283758,-0.218631 -0.514735,-0.435433 -0.989594,-0.435433 l -0.02278,0.997805 c -0.03401,0.33388 -0.06894,0.323581 -0.05512,0.332686 0.02214,0.01457 0.132321,0.05259 0.260887,0.151557 0.208653,0.160739 0.498276,0.422757 0.842021,0.744661 0.687483,0.64381 1.601008,1.528974 2.725721,2.420262 2.24942,1.782534 5.377694,3.611368 9.334976,3.611368 3.96276,0 7.712007,-1.852226 10.870967,-3.675199 1.57946,-0.911491 3.01398,-1.821351 4.2338,-2.502367 1.21977,-0.681028 2.24605,-1.108069 2.84021,-1.143501 l -0.0789,-1.318987 z m 3.52248,4.742203 c 2.63199,10.375245 8.7537,25.361053 12.68828,32.674404 2.09136,3.880096 6.25212,12.123946 8.04977,22.056326 1.13907,-0.0349 2.39329,0.13059 3.73642,0.47414 4.70008,-12.18477 -3.9856,-25.309366 -7.95732,-28.964459 -1.60352,-1.555959 -1.68059,-2.253092 -0.88566,-2.220136 4.30917,3.810739 9.96616,11.475335 12.02432,20.126645 0.93849,3.94484 1.13857,8.09197 0.13162,12.18479 0.49265,0.20467 0.993,0.42719 1.5001,0.66724 7.54449,3.67378 10.3347,6.86843 8.99314,11.22852 -0.44185,-0.0155 -0.8765,-0.0137 -1.30045,-0.004 -0.0395,6.5e-4 -0.0789,0.002 -0.11825,0.003 1.09252,-3.45612 -1.32778,-6.00518 -7.77713,-8.92322 -6.68927,-2.94297 -12.01964,-2.65019 -12.92055,3.31835 -0.0576,0.3127 -0.10408,0.63133 -0.13936,0.95439 -0.49976,0.17355 -1.00224,0.39514 -1.50598,0.67076 -3.14105,1.7187 -4.85547,4.83722 -5.809,8.6621 -0.95275,3.8218 -1.22589,8.44212 -1.48884,13.63588 0,6.5e-4 0,0.002 0,0.002 -0.16066,2.61161 -1.23438,6.14389 -2.32336,9.88517 -10.95803,7.81655 -26.166746,11.2031 -39.079511,2.39069 -0.8751,-1.38434 -1.878953,-2.75594 -2.912247,-4.10874 -0.659852,-0.8639 -1.337677,-1.72251 -2.011569,-2.56904 1.325568,0.001 2.452301,-0.21605 3.362933,-0.62896 1.132419,-0.51348 1.928089,-1.33825 2.32172,-2.39703 0.787263,-2.11762 -0.0032,-5.10491 -2.523724,-8.51622 -2.520117,-3.41106 -6.788305,-7.26077 -13.060143,-11.1072 0,0 -0.0013,0 -0.0013,-6.4e-4 -4.60764,-2.8666 -7.184511,-6.38018 -8.390651,-10.19505 -1.206254,-3.81521 -1.037119,-7.94069 -0.107458,-12.01378 1.78441,-7.81815 6.369237,-15.421926 9.294614,-20.193729 0.787597,-0.579519 0.281396,1.075683 -2.961498,7.097709 -2.906357,5.50581 -8.339808,18.21203 -0.900448,28.13043 0.198808,-7.05844 1.884471,-14.25717 4.714291,-20.99073 4.121852,-9.343336 12.743272,-25.545828 13.428015,-38.459443 0.353044,0.256365 1.566241,1.074937 2.106818,1.382357 6.42e-4,0.0022 0.0025,0.0022 0.0032,0.0022 1.581619,0.931389 2.769482,2.292863 4.307943,3.529284 1.54153,1.238863 3.467304,2.308914 6.376746,2.478439 l 0,0 c 3.39595,0.196511 5.984139,-0.855319 8.104679,-2.067877 2.11733,-1.210717 3.80882,-2.55063 5.41133,-3.073658 0.002,-0.0022 0.005,-0.0022 0.008,-0.0022 3.38624,-1.05893 6.07866,-2.933199 7.61079,-5.119239 z m 21.5078,59.39809 c 1.37158,-0.007 3.03306,0.45092 4.85178,1.26455 4.89493,2.25979 6.42649,4.19675 5.09014,7.04212 -1.12614,2.14717 -5.94601,5.56311 -9.24934,4.66221 -3.3709,-0.87088 -5.01506,-5.72829 -4.46702,-9.39949 0.29358,-2.493 1.70364,-3.55972 3.77444,-3.56939 z m -5.53825,6.70873 c 0.2767,4.48937 2.49786,9.06804 6.42602,10.05898 4.29866,1.1326 10.4964,-2.55568 13.11317,-5.56406 0.52177,-0.0208 1.03191,-0.0464 1.52733,-0.0584 2.29539,-0.0554 4.22059,0.0756 6.18765,1.79593 l 0.007,0.005 0.007,0.005 c 1.51163,1.28069 2.23016,3.70092 2.85335,6.41219 0.62316,2.71127 1.12149,5.66414 2.99037,7.76775 l 0.003,0.003 0.002,0.003 c 3.59295,3.98708 4.74783,6.68204 4.64953,8.40214 -0.0983,1.72016 -1.34376,2.99714 -3.64351,4.38419 -4.59754,2.77297 -12.7437,5.1843 -17.94687,11.48685 -4.51801,5.37667 -10.0272,8.32961 -14.8791,8.71254 -4.85187,0.38291 -9.0379,-1.63081 -11.50583,-6.58415 l -0.005,-0.0112 -0.005,-0.0111 c -1.53102,-2.91243 -0.89325,-7.50865 0.39649,-12.35676 1.28975,-4.84813 3.1428,-9.82612 3.39084,-13.87216 l 0,-0.007 0,-0.007 c 0.26242,-5.18406 0.55258,-9.71129 1.4234,-13.20441 0.87082,-3.49312 2.24202,-5.85887 4.67159,-7.18827 0.11315,-0.0619 0.22546,-0.12031 0.33714,-0.1755 z m -78.897609,0.33878 c 0.362623,10e-4 0.746372,0.0318 1.155225,0.0936 2.750171,0.41658 5.148415,2.33949 7.459009,5.47348 2.310612,3.13404 4.460591,7.41222 6.67073,12.15785 l 0.0032,0.005 0.0025,0.005 c 1.77606,3.70691 5.523853,7.78291 8.699875,11.94103 3.176017,4.15811 5.634041,8.33191 5.313951,11.52647 l -0.0013,0.0139 -0.0013,0.0138 c -0.414071,5.44846 -3.487515,8.41455 -8.205561,9.49219 -4.716646,1.07726 -11.110769,0.003 -17.497344,-3.33434 -0.002,-0.001 -0.0038,-0.002 -0.0058,-0.003 -7.065857,-3.74236 -15.471567,-3.37064 -20.863575,-4.49679 -2.696735,-0.56326 -4.456369,-1.41004 -5.263987,-2.98336 -0.807669,-1.57328 -0.825694,-4.31815 0.890579,-8.99827 l 0.0076,-0.0207 0.0068,-0.0209 c 0.848765,-2.61813 0.220639,-5.48277 -0.191442,-8.17153 -0.41208,-2.68879 -0.613609,-5.13447 0.304524,-6.83914 l 0.0045,-0.008 0.0038,-0.008 c 1.17551,-2.2659 2.899741,-3.07591 5.039702,-3.84365 2.139944,-0.76778 4.67747,-1.37074 6.681274,-3.37888 l 0.01041,-0.011 0.0103,-0.011 c 1.852437,-1.9542 3.243908,-4.40377 4.872415,-6.14237 1.374054,-1.46693 2.749118,-2.43918 4.821751,-2.45357 0.024,0 0.04807,0 0.07227,0 z"
     id="path154" />
</svg>
